PathFileType	4	(X/Y/Z)	5_coords_data.trc
DataRate	CameraRate	NumFrames	NumMarkers	Units	OrigDataRate	OrigDataStartFrame	OrigNumFrames
30.0	30.0	5	21	m	30.0	29	77
Frame#	Time	THUMB_TIP	THUMB_IP	THUMB_MCP	THUMB_CMC	INDEX_TIP	INDEX_DIP	INDEX_PIP	INDEX_MCP	MIDDLE_TIP	MIDDLE_DIP	MIDDLE_PIP	MIDDLE_MCP	RING_TIP	RING_DIP	RING_PIP	RING_MCP	PINKY_TIP	PINKY_DIP	PINKY_PIP	PINKY_MCP	WRIST
X1	Y1	Z1	X2	Y2	Z2	X3	Y3	Z3	X4	Y4	Z4	X5	Y5	Z5	X6	Y6	Z6	X7	Y7	Z7	X8	Y8	Z8	X9	Y9	Z9	X10	Y10	Z10	X11	Y11	Z11	X12	Y12	Z12	X13	Y13	Z13	X14	Y14	Z14	X15	Y15	Z15	X16	Y16	Z16	X17	Y17	Z17	X18	Y18	Z18	X19	Y19	Z19	X20	Y20	Z20	X21	Y21	Z21
27	0.9333333333333294	0.5206130040527936	-0.008431859181547319	-0.10116666335750826	0.5104306211170928	-0.010061579068369353	-0.12170110006371583	0.4793316339945919	-0.011352628924474861	-0.12162242208986948	0.47226666349562385	-0.02169593303691597	-0.07880896331945164	0.4927086959888536	-0.02235274153859579	-0.10002063837150586	0.5021879445041937	-0.00948906205935085	-0.10854528486503706	0.5157995044247833	0.008625204047463586	-0.11943604392672397	0.4906342910879419	0.038580177374565316	-0.10261202227065484	0.49197066845806114	-0.018111672291401204	-0.08871353337248974	0.5078154403151312	-0.010705589899886236	-0.09341386829752332	0.5278495653679411	0.00839626649484615	-0.10253321397818417	0.5020209074470208	0.04020817183050307	-0.0847278487777937	0.4986466598344631	-0.015198126356027242	-0.07284659393185561	0.5142872719783896	-0.008774890589216211	-0.07910065613551258	0.5344290547538776	0.004592025538894484	-0.08508514599256087	0.514088486014771	0.035625092436829986	-0.06902492008263231	0.503084697985643	-0.02125862724033556	-0.06065419584623996	0.5183459379114094	-0.02418455914607842	-0.06783287806592021	0.5357570909528596	-0.012876589144424355	-0.0709623481822323	0.523962313917125	0.01748714672616536	-0.05547654082005769	0.4622830810018608	-0.023011742144276925	-0.051989820119430985
28	0.9666666666666625	0.520625244392163	-0.008492191489604783	-0.1012632204310881	0.5103787090847922	-0.010126181056952288	-0.12176538110474898	0.47927797939719297	-0.01136976821178648	-0.12163083041833168	0.4722759739579441	-0.021709456910933733	-0.07880615578520155	0.49272176528295386	-0.022388523638213198	-0.10004899347966015	0.5021873812800409	-0.009541199740953799	-0.10861336050090575	0.5158303106544772	0.008573935375347785	-0.11946334625215373	0.49071594488854187	0.03855066091225268	-0.10260212885067611	0.4919402686647403	-0.01818749176583201	-0.08879562125785503	0.5078129397517154	-0.01080253586481783	-0.09343466630018682	0.5278623573937831	0.008285631542580663	-0.10254906519649817	0.50211800645829	0.04015180039128097	-0.08471865300787221	0.49866799640315485	-0.015363964779462447	-0.07287072729621283	0.5142961043620468	-0.008888679139472555	-0.07910233363051859	0.5344411369634824	0.004463821023305448	-0.08510802925135355	0.5141799896759476	0.035541546109646105	-0.06903377194189575	0.5031305384013458	-0.02116822465201673	-0.06060018836182808	0.5183288543783104	-0.02428120375508902	-0.06783348308609946	0.5357422312812332	-0.012979056365379549	-0.07097160166544607	0.5240137330877913	0.01740827827897118	-0.05548174452153817	0.4622830810018609	-0.023011742144276925	-0.051989820119430985
29	0.9999999999999956	0.5205965805470008	-0.008592266415616279	-0.10133220670671791	0.5103375286832215	-0.010182616259732713	-0.12183153943316558	0.4792358295972532	-0.0113948745579735	-0.12164514258709033	0.4722670638960168	-0.02171195897227851	-0.0788095957388315	0.49275617015149087	-0.02248079709764128	-0.10007928055283188	0.5021630275561573	-0.009609762301749147	-0.10867273719444039	0.5158440216396931	0.008494700629018137	-0.11949256417432935	0.49079410990330297	0.038511164969325495	-0.10260618254574715	0.49182033926732993	-0.018074183926870213	-0.08889956906937553	0.5078007874195676	-0.010870659021616325	-0.09345308483118311	0.5278684153782359	0.008196231343455818	-0.10257194166297925	0.5021884603602607	0.04010452976094048	-0.08472401956051798	0.49862398334227664	-0.015335072638527736	-0.07287505425856317	0.514302424821779	-0.008978455833446475	-0.07910240486433295	0.5344574590336839	0.004343601037078315	-0.08514205515681247	0.5142644203905349	0.035459907056748174	-0.069056735015561	0.5031579252730212	-0.02107954900624054	-0.06054151559652188	0.5182837059565254	-0.024362504291909892	-0.0678513010452766	0.5357181945948358	-0.013093369362286111	-0.07099092249675082	0.5240655781155168	0.017326702039074937	-0.05550805337885148	0.4622830810018608	-0.023011742144276925	-0.051989820119430985
30	1.0333333333333288	0.5205609569595989	-0.008705510464781296	-0.10140515563645683	0.5103029162824366	-0.010258917438341286	-0.12190782688291103	0.479200188792151	-0.011433359614322125	-0.12166078793798701	0.47225428047133167	-0.021722766387387016	-0.07881487254506797	0.4927025836032056	-0.022544563602584722	-0.1001590212778025	0.5021625255398389	-0.009701972184860352	-0.1087367449987509	0.5158599186867515	0.008406762789211819	-0.119528638790747	0.4908749480806197	0.03846376620238234	-0.10261817210199514	0.49159496213721854	-0.01776510927067232	-0.08914483976592405	0.5078013922486767	-0.010945613014510358	-0.09348604856700846	0.5278811717174314	0.008104525304471144	-0.1026131640211844	0.5022543143831406	0.04004820425452893	-0.08475221557762344	0.49873782966992786	-0.01570563392390123	-0.07292835281094939	0.5143203100157885	-0.00908613664182012	-0.0791225890030388	0.5344741996327516	0.004222506147079086	-0.08519554046215222	0.5143456000201654	0.03537507766764458	-0.06909965281057322	0.5032005423172734	-0.02103298013977284	-0.060451232098118285	0.5182415585754517	-0.02445875009471543	-0.06786958300226309	0.5356893397502143	-0.013212656984750493	-0.07101797002415236	0.5241188327596407	0.017242068915615305	-0.055541649747204325	0.4622830810018609	-0.023011742144276925	-0.051989820119430985
31	1.0666666666666622	0.5205116543612367	-0.008824568555269474	-0.10147253903185126	0.5102651581435087	-0.010304241973586703	-0.12198643387986127	0.4791628125983777	-0.01147225126565421	-0.12167043406195957	0.47225513355909554	-0.021751602861403097	-0.07881592553530346	0.49263631968102517	-0.02260771137406281	-0.10025660984866519	0.5021511732699807	-0.009783931827552439	-0.10880168090297751	0.5158933616239197	0.008299706533358653	-0.11957869885214384	0.49096941377737136	0.03839562953884679	-0.10264741608354447	0.49142467282960156	-0.01751703588457132	-0.08937274877492732	0.5078011656814754	-0.011005899403855213	-0.09354594702111896	0.5279177211247144	0.00800270604657849	-0.10267867202129485	0.5023327713380906	0.03997185692745975	-0.08480322356897922	0.4987027732979197	-0.015665552335253574	-0.07297835964283228	0.5143411444764341	-0.009190842066502558	-0.07918476551247539	0.5345096255849616	0.004087671682751592	-0.08527520239219429	0.5144405492374686	0.03527112038053126	-0.06916478539351134	0.5033216524125049	-0.020686130798583502	-0.060440115139735365	0.5182183553966867	-0.024557063566084114	-0.06793038347341723	0.5356861997738066	-0.013342670334259288	-0.0710805923964458	0.5241806712566554	0.017140624818266614	-0.055612076592238394	0.4622830810018608	-0.023011742144276925	-0.051989820119431
